<?xml version="1.0" standalone="no"?>
<!DOCTYPE svg PUBLIC "-//W3C//DTD SVG 20010904//EN"
 "http://www.w3.org/TR/2001/REC-SVG-20010904/DTD/svg10.dtd">
<svg version="1.0" xmlns="http://www.w3.org/2000/svg"
 width="309.000000pt" height="808.000000pt" viewBox="0 0 309.000000 808.000000"
 preserveAspectRatio="xMidYMid meet">

<g transform="translate(0.000000,808.000000) scale(0.100000,-0.100000)"
fill="#000000" stroke="none">
<path d="M2895 442 c-66 -42 -70 -51 -73 -201 -3 -155 7 -190 69 -223 66 -35
146 -12 181 53 16 29 18 52 16 171 l-3 138 -36 36 c-46 45 -107 56 -154 26z
m115 -17 c50 -26 60 -60 60 -195 0 -135 -10 -169 -60 -195 -57 -30 -127 -10
-155 45 -21 41 -21 259 0 300 28 55 98 75 155 45z"/>
<path d="M2945 338 c-9 -22 -2 -68 10 -71 14 -3 19 63 6 76 -7 7 -12 5 -16 -5z"/>
</g>
</svg>
